<?xml version="1.0" encoding="UTF-8"?>
<!DOCTYPE svg PUBLIC "-//W3C//DTD SVG 1.1//EN" "http://www.w3.org/Graphics/SVG/1.1/DTD/svg11.dtd">
<!-- Creator: CorelDRAW 2019 (64-Bit) -->
<svg xmlns="http://www.w3.org/2000/svg" xml:space="preserve" width="48.0479mm" height="33.3191mm" version="1.1" style="shape-rendering:geometricPrecision; text-rendering:geometricPrecision; image-rendering:optimizeQuality; fill-rule:evenodd; clip-rule:evenodd"
viewBox="0 0 774.91 537.37"
 xmlns:xlink="http://www.w3.org/1999/xlink">
 <defs>
  <style type="text/css">
   <![CDATA[
    .fil1 {fill:#EA533D}
    .fil0 {fill:#E31E24}
    .fil2 {fill:#AE2220}
    .fil4 {fill:#65B554}
    .fil6 {fill:#00B1EB}
    .fil3 {fill:#21A73F}
    .fil5 {fill:#238435}
    .fil7 {fill:#008DD2}
    .fil8 {fill:#ffffff;fill-rule:nonzero}
    .fil9 {fill:#00A0E3;fill-rule:nonzero}
   ]]>
  </style>
 </defs>
 <g id="Layer_x0020_1">
  <metadata id="CorelCorpID_0Corel-Layer"/>
  <g id="_1531617088">
   <g>
    <path class="fil0" d="M53.71 125.83c67.15,24.64 115.37,67.32 152.75,120.32 2.59,3.67 5.18,4.31 9.21,2.57 3.21,-1.39 6.43,-2.78 9.64,-4.17 3.91,-1.69 4.07,-4.65 2.76,-8.33 -24.92,-69.62 -76.69,-128.26 -150.97,-177.63 -6.57,-4.37 -11.43,0 -12.67,6.98 -3.57,20.08 -7.14,40.17 -10.71,60.26z"/>
    <path class="fil1" d="M53.71 125.83c67.15,24.64 115.37,67.32 152.74,120.32 2.59,3.68 5.17,4.31 9.21,2.57l1.86 -0.81c-41.57,-59.08 -94.06,-100.25 -163.82,-122.08zm38.65 -56.73c-4.98,-3.55 -10.06,-7.05 -15.26,-10.51 -1.64,-1.09 -3.18,-1.64 -4.58,-1.73 0.42,0.19 0.86,0.42 1.3,0.68 6.33,3.78 12.51,7.64 18.54,11.56z"/>
    <path class="fil2" d="M133.33 169.15c12.24,9.28 23.63,19.37 34.27,30.18 12.37,-4.14 24.95,-8.04 37.77,-11.65 -7.41,-12.68 -15.82,-24.96 -25.2,-36.83 -15.77,5.32 -31.37,11.46 -46.84,18.3z"/>
    <path class="fil2" d="M180.6 151.39c-27.07,-34.42 -62.24,-65.52 -104.73,-93.61 -9.45,15.83 -15.36,33.26 -19.23,51.63l-2.92 16.42c46.7,5.19 88.86,13.81 126.89,25.56z"/>
    <path class="fil3" d="M0.74 231.78c3.83,5.52 8.32,10.18 13.07,14.06 2.38,1.95 5.13,2.03 7.86,0.76 83.05,-38.64 170.84,-71.27 274.57,-83.54 2.03,-8.52 4.51,-19.3 6.77,-28.98 0.98,-4.2 1.62,-9.67 -3.95,-9.72 -104.61,-0.84 -201.05,43.73 -296.31,101.41 -2.25,1.36 -3.69,3.58 -2,6.01z"/>
    <path class="fil4" d="M0.74 231.78c3.83,5.52 8.32,10.18 13.07,14.06 2.38,1.95 5.13,2.03 7.86,0.76 56.02,-50.94 93.96,-74.49 160.36,-105.02 -61.3,18.02 -120.52,48.61 -179.28,84.19 -2.25,1.36 -3.69,3.58 -2,6.01z"/>
    <path class="fil5" d="M296.22 163.06c1.53,-6.43 3.32,-14.15 5.08,-21.72 0.71,-5.72 1.02,-11.55 0.8,-16.94 -41.15,-0.68 -81.03,5.69 -120.07,17.16 41.58,2.92 79.52,10.23 114.19,21.49z"/>
    <path class="fil6" d="M206.24 60.77c-16.78,0 -30.38,-13.6 -30.38,-30.38 0,-16.78 13.6,-30.38 30.38,-30.38 16.78,0 30.38,13.6 30.38,30.38 0,16.78 -13.6,30.38 -30.38,30.38z"/>
    <path class="fil7" d="M206.24 60.77c-14.43,0 -26.51,-10.06 -29.61,-23.54 1.5,0.12 3.01,0.18 4.54,0.18 20.33,0 38.12,-10.82 47.95,-27.02 4.67,5.34 7.5,12.33 7.5,19.99 0,16.78 -13.6,30.38 -30.38,30.38z"/>
    <path class="fil7" d="M74.45 52.75c81.66,9.21 157.71,29.48 226.19,69.01 3.06,1.77 4.65,3.8 4.32,7.45 -1.05,11.87 -4.49,24.95 -8.74,33.85 -66.02,-27.58 -145.84,-41.03 -242.51,-37.23 -0.07,-23.12 2.37,-45.52 10.1,-66.41 2.12,-5.72 4.63,-7.35 10.63,-6.67z"/>
    <path class="fil6" d="M74.45 52.75c81.66,9.21 157.71,29.48 226.19,69.01 -84.68,-23.8 -168.57,-28.44 -246.93,4.07 -0.07,-23.12 2.36,-45.52 10.1,-66.41 2.12,-5.72 4.63,-7.34 10.63,-6.67z"/>
   </g>
   <path class="fil8" d="M291.51 384.39c0,-15.01 -1.54,-16.58 -12.43,-16.58 -10.89,0 -12.48,1.57 -12.48,16.58 0,14.36 0.89,15.93 12.48,15.93 11.64,0 12.43,-1.57 12.43,-15.93zm-5.26 0.19c0,11.64 -0.19,11.64 -7.03,11.64l-0.33 0c-6.85,0 -6.94,0 -6.94,-11.64l0 -0.41c0,-12.24 0.51,-12.24 6.94,-12.24l0.33 0c6.47,0 7.03,0 7.03,12.24l0 0.41zm15.6 -16.72l0 6.33 4.52 0 0 -6.33 -0.88 0 2.42 -5.59 -3.4 0 -2.66 5.59zm37.72 31.91l0 -4.11 -16.44 0 15.79 -23.23 0 -4.06 -21.7 0 0 4.06 15.55 0 -15.78 23.23 0 4.11 22.58 0zm39.67 -8.78c0,-7.21 -3.17,-7.21 -3.17,-7.21l0 -0.09c0,0 2.93,0 2.93,-6.37 0,-8.96 -5.03,-8.96 -9.82,-8.96l-13.6 0 0 31.4 14.02 0c5.17,0 9.64,0 9.64,-8.78zm-5.54 -13.53c0,4.48 -1.12,4.48 -5.35,4.48l-7.54 0 0 -9.7 7.4 0c4,0 5.49,0 5.49,5.22zm0.14 13.21c0,5.22 -1.4,5.22 -5.35,5.22l-7.68 0 0 -10.35 7.59 0c4.38,0 5.45,0 5.45,5.13zm43.77 9.1l0 -3.88 -16.39 0 0 -10.35 14.85 0 0 -3.6 -14.85 0 0 -9.7 16.11 0 0 -3.88 -21.32 0 0 31.4 21.6 0zm41.96 0l-11.22 -16.03 10.66 -15.38 -6.01 0 -9.27 13.35 -4.52 0 0 -13.35 -5.21 0 0 31.4 5.21 0 0 -14 4.52 0 9.68 14 6.15 0zm20.3 0l0 -31.4 -5.22 0 0 31.4 5.22 0zm38.74 -8.5c0,-5.26 0,-8.03 -6.84,-9.28l-6.8 -1.25c-3.49,-0.6 -3.49,-1.16 -3.49,-4.62 0,-4.43 1.44,-4.43 7.22,-4.43 5.35,0 8.8,0.51 8.8,0.51l0 -3.42c0,0 -4.14,-0.97 -10.71,-0.97 -6.19,0 -10.62,0.56 -10.62,8.36 0,4.57 0,7.3 6.84,8.64l6.75 1.29c3.54,0.69 3.54,1.11 3.54,5.26 0,5.08 -1.4,5.08 -7.82,5.08 -5.82,0 -9.41,-0.51 -9.41,-0.51l0 3.42c0,0 4.28,0.97 11.27,0.97 7.68,0 11.27,-0.55 11.27,-9.05zm37.58 -18.84l0 -4.06 -23.75 0 0 4.06 9.31 0 0 27.34 5.17 0 0 -27.34 9.27 0zm39.91 11.96c0,-15.01 -1.54,-16.58 -12.43,-16.58 -10.9,0 -12.48,1.57 -12.48,16.58 0,14.36 0.89,15.93 12.48,15.93 11.64,0 12.43,-1.57 12.43,-15.93zm-5.26 0.19c0,11.64 -0.19,11.64 -7.03,11.64l-0.33 0c-6.84,0 -6.94,0 -6.94,-11.64l0 -0.41c0,-12.24 0.51,-12.24 6.94,-12.24l0.33 0c6.47,0 7.03,0 7.03,12.24l0 0.41zm47.73 15.2l0 -31.4 -4.79 0 0 26.19 -13.18 -26.19 -7.31 0 0 31.4 4.84 0 0 -26.23 13.18 26.23 7.26 0zm-347.06 53.14c0,-15.01 -1.54,-16.58 -12.43,-16.58 -10.89,0 -12.48,1.57 -12.48,16.58 0,14.36 0.89,15.93 12.48,15.93 11.64,0 12.43,-1.57 12.43,-15.93zm-5.26 0.19c0,11.64 -0.19,11.64 -7.03,11.64l-0.33 0c-6.85,0 -6.94,0 -6.94,-11.64l0 -0.41c0,-12.24 0.51,-12.24 6.94,-12.24l0.33 0c6.47,0 7.03,0 7.03,12.24l0 0.41zm47.73 15.2l0 -31.41 -4.8 0 0 26.19 -13.18 -26.19 -7.31 0 0 31.41 4.84 0 0 -26.23 13.18 26.23 7.27 0zm43.16 0l-11.22 -16.03 10.66 -15.38 -6.01 0 -9.27 13.35 -4.51 0 0 -13.35 -5.22 0 0 31.41 5.22 0 0 -14 4.51 0 9.69 14 6.14 0zm38.61 -15.38c0,-15.01 -1.54,-16.58 -12.43,-16.58 -10.89,0 -12.48,1.57 -12.48,16.58 0,14.36 0.89,15.93 12.48,15.93 11.64,0 12.43,-1.57 12.43,-15.93zm-5.26 0.19c0,11.64 -0.19,11.64 -7.03,11.64l-0.33 0c-6.85,0 -6.94,0 -6.94,-11.64l0 -0.41c0,-12.24 0.51,-12.24 6.94,-12.24l0.33 0c6.47,0 7.03,0 7.03,12.24l0 0.41zm43.31 15.2l0 -4.11 -15.65 0 0 -27.29 -5.21 0 0 31.41 20.86 0zm39.91 -15.38c0,-15.01 -1.54,-16.58 -12.43,-16.58 -10.9,0 -12.48,1.57 -12.48,16.58 0,14.36 0.89,15.93 12.48,15.93 11.64,0 12.43,-1.57 12.43,-15.93zm-5.26 0.19c0,11.64 -0.19,11.64 -7.03,11.64l-0.33 0c-6.84,0 -6.94,0 -6.94,-11.64l0 -0.41c0,-12.24 0.51,-12.24 6.94,-12.24l0.33 0c6.47,0 7.03,0 7.03,12.24l0 0.41zm46.43 14.78l0 -17.41 -12.02 0 0 3.6 6.85 0 0 10.48c0,0 -2.65,0.42 -6.98,0.42 -6.75,0 -6.94,0 -6.94,-11.82 0,-12.88 0.37,-12.84 7.45,-12.93 5.73,-0.05 11.41,0.46 11.41,0.46l0 -3.42c0,0 -4.61,-0.93 -12.11,-0.93 -10.75,0 -12.1,2.08 -12.1,16.77 0,13.95 0.84,15.75 12.25,15.75 7.54,0 12.2,-0.97 12.2,-0.97zm38.23 0.41l0 -4.11 -15.65 0 0 -27.29 -5.21 0 0 31.41 20.86 0zm41.96 0l-11.04 -31.41 -7.31 0 -11.08 31.41 5.41 0 3.12 -9.05 12.34 0 3.12 9.05 5.45 0zm-9.73 -12.93l-10.01 0 5.03 -14.5 4.98 14.5zm48.94 12.93l-5.64 -13.48c3.21,-0.65 4.79,-2.54 4.79,-8.55 0,-9.1 -3.95,-9.38 -10.06,-9.38l-13.6 0 0 31.41 5.22 0 0 -13.21 8.57 0 5.08 13.21 5.64 0zm-6.24 -22.12c0,5.04 -0.7,5.04 -5.45,5.04l-7.59 0 0 -10.44 7.45 0c4.7,0 5.59,0 5.59,5.4zm-354.46 90.64l-11.03 -31.41 -7.31 0 -11.08 31.41 5.4 0 3.12 -9.05 12.34 0 3.12 9.05 5.45 0zm-9.73 -12.93l-10.01 0 5.03 -14.5 4.98 14.5zm45.59 4.43c0,-5.26 0,-8.03 -6.84,-9.28l-6.8 -1.25c-3.49,-0.6 -3.49,-1.16 -3.49,-4.62 0,-4.43 1.44,-4.43 7.22,-4.43 5.35,0 8.8,0.51 8.8,0.51l0 -3.42c0,0 -4.14,-0.97 -10.71,-0.97 -6.19,0 -10.62,0.56 -10.62,8.36 0,4.57 0,7.3 6.85,8.64l6.75 1.29c3.54,0.69 3.54,1.11 3.54,5.26 0,5.08 -1.4,5.08 -7.82,5.08 -5.82,0 -9.41,-0.51 -9.41,-0.51l0 3.42c0,0 4.29,0.97 11.27,0.97 7.68,0 11.27,-0.55 11.27,-9.05zm37.16 0c0,-5.26 0,-8.03 -6.85,-9.28l-6.8 -1.25c-3.49,-0.6 -3.49,-1.16 -3.49,-4.62 0,-4.43 1.44,-4.43 7.22,-4.43 5.35,0 8.8,0.51 8.8,0.51l0 -3.42c0,0 -4.14,-0.97 -10.71,-0.97 -6.19,0 -10.62,0.56 -10.62,8.36 0,4.57 0,7.3 6.84,8.64l6.75 1.29c3.54,0.69 3.54,1.11 3.54,5.26 0,5.08 -1.4,5.08 -7.82,5.08 -5.82,0 -9.41,-0.51 -9.41,-0.51l0 3.42c0,0 4.28,0.97 11.27,0.97 7.68,0 11.27,-0.55 11.27,-9.05zm40.46 -6.88c0,-15.01 -1.54,-16.58 -12.43,-16.58 -10.89,0 -12.48,1.57 -12.48,16.58 0,14.36 0.89,15.93 12.48,15.93 11.64,0 12.43,-1.57 12.43,-15.93zm-5.26 0.19c0,11.64 -0.19,11.64 -7.03,11.64l-0.33 0c-6.85,0 -6.94,0 -6.94,-11.64l0 -0.41c0,-12.24 0.51,-12.24 6.94,-12.24l0.33 0c6.47,0 7.03,0 7.03,12.24l0 0.41zm44 -12.15l0 -4.06 -23.75 0 0 4.06 9.32 0 0 27.34 5.17 0 0 -27.34 9.27 0zm36.6 18.84c0,-5.26 0,-8.03 -6.85,-9.28l-6.8 -1.25c-3.49,-0.6 -3.49,-1.16 -3.49,-4.62 0,-4.43 1.44,-4.43 7.22,-4.43 5.35,0 8.8,0.51 8.8,0.51l0 -3.42c0,0 -4.14,-0.97 -10.71,-0.97 -6.19,0 -10.62,0.56 -10.62,8.36 0,4.57 0,7.3 6.84,8.64l6.75 1.29c3.54,0.69 3.54,1.11 3.54,5.26 0,5.08 -1.4,5.08 -7.82,5.08 -5.82,0 -9.41,-0.51 -9.41,-0.51l0 3.42c0,0 4.28,0.97 11.27,0.97 7.68,0 11.27,-0.55 11.27,-9.05zm21.23 8.5l0 -31.41 -5.22 0 0 31.41 5.22 0zm44.1 0l-11.03 -31.41 -7.31 0 -11.08 31.41 5.4 0 3.12 -9.05 12.34 0 3.12 9.05 5.45 0zm-9.73 -12.93l-10.01 0 5.03 -14.5 4.98 14.5zm43.17 -14.41l0 -4.06 -23.75 0 0 4.06 9.31 0 0 27.34 5.17 0 0 -27.34 9.27 0zm36.6 18.84c0,-5.26 0,-8.03 -6.84,-9.28l-6.8 -1.25c-3.49,-0.6 -3.49,-1.16 -3.49,-4.62 0,-4.43 1.44,-4.43 7.22,-4.43 5.35,0 8.8,0.51 8.8,0.51l0 -3.42c0,0 -4.14,-0.97 -10.71,-0.97 -6.19,0 -10.62,0.56 -10.62,8.36 0,4.57 0,7.3 6.85,8.64l6.75 1.29c3.54,0.69 3.54,1.11 3.54,5.26 0,5.08 -1.4,5.08 -7.82,5.08 -5.82,0 -9.41,-0.51 -9.41,-0.51l0 3.42c0,0 4.29,0.97 11.27,0.97 7.68,0 11.27,-0.55 11.27,-9.05zm21.23 8.5l0 -31.41 -5.22 0 0 31.41 5.22 0zm41.45 -31.41l-5.59 0 -7.78 13.9 -7.78 -13.9 -5.64 0 10.06 18.06 0.75 0 0 13.35 5.17 0 0 -13.35 0.74 0 10.06 -18.06zm37.39 31.41l-11.03 -31.41 -7.31 0 -11.08 31.41 5.4 0 3.12 -9.05 12.34 0 3.12 9.05 5.45 0zm-9.73 -12.93l-10.01 0 5.03 -14.5 4.98 14.5zm45.59 4.43c0,-5.26 0,-8.03 -6.84,-9.28l-6.8 -1.25c-3.49,-0.6 -3.49,-1.16 -3.49,-4.62 0,-4.43 1.44,-4.43 7.22,-4.43 5.35,0 8.8,0.51 8.8,0.51l0 -3.42c0,0 -4.15,-0.97 -10.71,-0.97 -6.19,0 -10.62,0.56 -10.62,8.36 0,4.57 0,7.3 6.85,8.64l6.75 1.29c3.54,0.69 3.54,1.11 3.54,5.26 0,5.08 -1.4,5.08 -7.82,5.08 -5.82,0 -9.41,-0.51 -9.41,-0.51l0 3.42c0,0 4.28,0.97 11.27,0.97 7.68,0 11.27,-0.55 11.27,-9.05zm21.23 8.5l0 -31.41 -5.22 0 0 31.41 5.22 0z"/>
   <path class="fil9" d="M343.93 268c0,-45.44 -5.47,-50.33 -39.97,-50.33 -34.5,0 -39.84,4.89 -39.84,50.33 0,43.48 2.73,48.37 39.84,48.37 37.1,0 39.97,-4.89 39.97,-48.37zm-26.04 0.56c0,28.1 -0.26,28.1 -13.41,28.1l-1.04 0c-13.28,0 -13.54,0 -13.54,-28.1l0 -1.26c0,-30.06 0.91,-30.06 13.54,-30.06l1.04 0c12.63,0 13.41,0 13.41,30.06l0 1.26zm149.01 46l0 -19.57 -40.75 0 38.67 -55.92 0 -19.57 -67.57 0 0 19.57 37.88 0 -38.8 55.92 0 19.57 70.56 0zm94.55 -46.56c0,-45.44 -5.47,-50.33 -39.96,-50.33 -34.5,0 -39.84,4.89 -39.84,50.33 0,43.48 2.73,48.37 39.84,48.37 37.1,0 39.96,-4.89 39.96,-48.37zm-26.04 0.56c0,28.1 -0.26,28.1 -13.41,28.1l-1.04 0c-13.28,0 -13.54,0 -13.54,-28.1l0 -1.26c0,-30.06 0.91,-30.06 13.54,-30.06l1.04 0c12.63,0 13.41,0 13.41,30.06l0 1.26zm130.75 46l-28.77 -95.07 -36.06 0 -28.77 95.07 25.65 0 6.38 -22.51 29.16 0 6.38 22.51 26.04 0zm-36.71 -40.55l-20.44 0 10.15 -36.21 10.29 36.21zm-271.55 -54.67l0 21.95 21.09 0 0 -21.95 -5.6 0 8.07 -18.87 -14.45 0 -9.11 18.87z"/>
  </g>
 </g>
</svg>
